# xmcd
#
# Track frame offsets:
#	179
#	11423
#	29957
#	43281
#	52686
#	64774
#	77155
#	88684
#	99553
#	115045
#	127252
#	139015
#
# Disc length: 2009 seconds
# Revision: 1
# Processed by: cddbd v1.5.2PL0 Copyright (c) Steve Scherf et al.
# Submitted via: dBpowerAMP V12.0
#
DISCID=a307d70c
DTITLE=Johnny Cash - Complete Columbia Album Collection, Disc 11 [Keep On the Sunny Side]
DYEAR=1963
DGENRE=Country
TTITLE0=Keep On the Sunny Side
TTITLE1=The Banks of the Ohio
TTITLE2=My Clinch Mountain Home
TTITLE3=Lonesome Valley
TTITLE4=Worried Man Blues
TTITLE5=Will the Circle Be Unbroken
TTITLE6=The Wabash Cannonball
TTITLE7=Broken-Hearted Lover
TTITLE8=Brown Eyes
TTITLE9=I'm Working On a Building
TTITLE10=Gathering Flowers From the Hillside
TTITLE11=When the Roses Bloom Again
EXTD=
EXTT0=
EXTT1=
EXTT2=
EXTT3=
EXTT4=
EXTT5=
EXTT6=
EXTT7=
EXTT8=
EXTT9=
EXTT10=
EXTT11=
PLAYORDER=
